<svg width="312" height="34" viewBox="0 0 312 34" fill="none" xmlns="http://www.w3.org/2000/svg">
<path d="M11.3333 16.646V10.6252C11.3333 10.0349 11.5402 9.53339 11.9538 9.12067C12.3675 8.70794 12.869 8.50111 13.4583 8.50017C14.0477 8.49922 14.5496 8.70606 14.9642 9.12067C15.3789 9.53528 15.5852 10.0368 15.5833 10.6252V16.646C15.5833 17.2363 15.377 17.7382 14.9642 18.1519C14.5515 18.5656 14.0496 18.7719 13.4583 18.771C12.8671 18.7701 12.3656 18.5637 11.9538 18.1519C11.5421 17.7401 11.3352 17.2382 11.3333 16.646ZM18.4167 16.3272V4.9585C18.4167 4.36822 18.6235 3.86672 19.0372 3.454C19.4508 3.04128 19.9523 2.83444 20.5417 2.8335C21.131 2.83255 21.633 3.03939 22.0476 3.454C22.4622 3.86861 22.6686 4.37011 22.6667 4.9585V16.3272C22.6667 17.0356 22.4485 17.5668 22.0122 17.921C21.5758 18.2752 21.0857 18.4522 20.5417 18.4522C19.9977 18.4522 19.508 18.2752 19.0726 17.921C18.6372 17.5668 18.4186 17.0356 18.4167 16.3272ZM4.25 21.2148V16.2918C4.25 15.7016 4.45683 15.2001 4.8705 14.7873C5.28417 14.3746 5.78567 14.1678 6.375 14.1668C6.96433 14.1659 7.46631 14.3727 7.88092 14.7873C8.29553 15.2019 8.50189 15.7034 8.5 16.2918V21.2148C8.5 21.9231 8.28183 22.4543 7.8455 22.8085C7.40917 23.1627 6.919 23.3398 6.375 23.3398C5.831 23.3398 5.34131 23.1627 4.90592 22.8085C4.47053 22.4543 4.25189 21.9231 4.25 21.2148ZM7.65 29.821C7.03611 29.821 6.60497 29.532 6.35658 28.954C6.10819 28.376 6.20878 27.8622 6.65833 27.4127L12.4667 21.6043C12.7264 21.3446 13.0395 21.2029 13.4059 21.1793C13.7724 21.1557 14.0968 21.2738 14.3792 21.5335L18.4167 25.0043L26.35 17.071H25.5C25.0986 17.071 24.7624 16.935 24.4913 16.663C24.2203 16.391 24.0843 16.0548 24.0833 15.6543C24.0824 15.2539 24.2184 14.9177 24.4913 14.6457C24.7643 14.3737 25.1005 14.2377 25.5 14.2377H29.75C30.1514 14.2377 30.4881 14.3737 30.7601 14.6457C31.0321 14.9177 31.1676 15.2539 31.1667 15.6543V19.9043C31.1667 20.3057 31.0307 20.6424 30.7587 20.9144C30.4867 21.1864 30.1504 21.3219 29.75 21.321C29.3496 21.3201 29.0133 21.1841 28.7413 20.913C28.4693 20.6419 28.3333 20.3057 28.3333 19.9043V19.0543L19.4792 27.9085C19.2194 28.1682 18.9064 28.3099 18.5399 28.3335C18.1735 28.3571 17.8491 28.2391 17.5667 27.9793L13.5292 24.5085L8.64167 29.396C8.52361 29.5141 8.37628 29.6146 8.19967 29.6978C8.02306 29.7809 7.83983 29.8219 7.65 29.821Z" fill="#2342DE"/>
<path d="M43.45 16.75H57.125V21.625H43.45V16.75ZM57.6 9.25V14.125H43.725L46.45 11.45V28H40.625V9.25H57.6ZM59.8313 13.4L62.7063 14L65.5563 13.4V28H59.8313V13.4ZM62.7063 12.45C61.7396 12.45 60.9563 12.2083 60.3563 11.725C59.7563 11.2417 59.4563 10.5917 59.4563 9.775C59.4563 8.94167 59.7563 8.28333 60.3563 7.8C60.9563 7.31667 61.7396 7.075 62.7063 7.075C63.7063 7.075 64.4979 7.31667 65.0813 7.8C65.6813 8.28333 65.9813 8.94167 65.9813 9.775C65.9813 10.5917 65.6813 11.2417 65.0813 11.725C64.4979 12.2083 63.7063 12.45 62.7063 12.45ZM67.5059 13.675H73.2309L74.2059 19.6V28H68.4809V18.725L67.5059 13.675ZM79.3059 13.25C80.7059 13.25 81.8892 13.525 82.8559 14.075C83.8225 14.625 84.5642 15.4083 85.0809 16.425C85.6142 17.425 85.8809 18.6 85.8809 19.95V28H80.1309V20.775C80.1309 19.8417 79.8809 19.125 79.3809 18.625C78.8975 18.125 78.2059 17.875 77.3059 17.875C76.6725 17.875 76.1225 18.0083 75.6559 18.275C75.1892 18.5417 74.8309 18.9167 74.5809 19.4C74.3309 19.8833 74.2059 20.4667 74.2059 21.15L72.4809 20.25C72.6975 18.7 73.1309 17.4083 73.7809 16.375C74.4475 15.3417 75.2559 14.5667 76.2059 14.05C77.1559 13.5167 78.1892 13.25 79.3059 13.25ZM101.073 28L100.398 22.9L101.098 20.85L100.398 18.825L101.073 13.675H107.023L106.073 20.825L107.023 28H101.073ZM102.348 20.85C102.148 22.3667 101.706 23.7 101.023 24.85C100.356 25.9833 99.4897 26.8667 98.423 27.5C97.373 28.1167 96.1647 28.425 94.798 28.425C93.4147 28.425 92.1897 28.1083 91.123 27.475C90.0564 26.8417 89.223 25.9583 88.623 24.825C88.0397 23.675 87.748 22.35 87.748 20.85C87.748 19.3167 88.0397 17.9833 88.623 16.85C89.223 15.7 90.0564 14.8167 91.123 14.2C92.1897 13.5667 93.4147 13.25 94.798 13.25C96.1647 13.25 97.373 13.5583 98.423 14.175C99.4897 14.7917 100.365 15.675 101.048 16.825C101.731 17.9583 102.165 19.3 102.348 20.85ZM93.523 20.85C93.523 21.4833 93.648 22.0417 93.898 22.525C94.1647 23.0083 94.5314 23.3917 94.998 23.675C95.4647 23.9583 95.998 24.1 96.598 24.1C97.2147 24.1 97.8064 23.9583 98.373 23.675C98.9397 23.3917 99.4397 23.0083 99.873 22.525C100.306 22.0417 100.623 21.4833 100.823 20.85C100.623 20.2167 100.306 19.6583 99.873 19.175C99.4397 18.675 98.9397 18.2833 98.373 18C97.8064 17.7167 97.2147 17.575 96.598 17.575C95.998 17.575 95.4647 17.7167 94.998 18C94.5314 18.2833 94.1647 18.675 93.898 19.175C93.648 19.6583 93.523 20.2167 93.523 20.85ZM108.595 13.675H114.32L115.295 19.6V28H109.57V18.725L108.595 13.675ZM120.395 13.25C121.795 13.25 122.978 13.525 123.945 14.075C124.911 14.625 125.653 15.4083 126.17 16.425C126.703 17.425 126.97 18.6 126.97 19.95V28H121.22V20.775C121.22 19.8417 120.97 19.125 120.47 18.625C119.986 18.125 119.295 17.875 118.395 17.875C117.761 17.875 117.211 18.0083 116.745 18.275C116.278 18.5417 115.92 18.9167 115.67 19.4C115.42 19.8833 115.295 20.4667 115.295 21.15L113.57 20.25C113.786 18.7 114.22 17.4083 114.87 16.375C115.536 15.3417 116.345 14.5667 117.295 14.05C118.245 13.5167 119.278 13.25 120.395 13.25ZM146.887 21.825C146.754 23.1417 146.279 24.3 145.462 25.3C144.645 26.2833 143.579 27.05 142.262 27.6C140.962 28.15 139.495 28.425 137.862 28.425C136.079 28.425 134.495 28.1083 133.112 27.475C131.745 26.8417 130.679 25.95 129.912 24.8C129.145 23.65 128.762 22.3333 128.762 20.85C128.762 19.3333 129.145 18.0083 129.912 16.875C130.679 15.7417 131.745 14.8583 133.112 14.225C134.495 13.575 136.079 13.25 137.862 13.25C139.495 13.25 140.962 13.525 142.262 14.075C143.579 14.625 144.645 15.3917 145.462 16.375C146.279 17.3583 146.754 18.5167 146.887 19.85H141.212C141.045 19.0667 140.662 18.475 140.062 18.075C139.462 17.6583 138.729 17.45 137.862 17.45C137.195 17.45 136.612 17.5833 136.112 17.85C135.612 18.1 135.229 18.4833 134.962 19C134.695 19.5 134.562 20.1167 134.562 20.85C134.562 21.5833 134.695 22.2 134.962 22.7C135.229 23.2 135.612 23.5833 136.112 23.85C136.612 24.1 137.195 24.225 137.862 24.225C138.729 24.225 139.462 24.0083 140.062 23.575C140.662 23.125 141.045 22.5417 141.212 21.825H146.887ZM157.322 28.425C155.556 28.425 153.981 28.1083 152.597 27.475C151.214 26.8417 150.122 25.95 149.322 24.8C148.522 23.65 148.122 22.3083 148.122 20.775C148.122 19.275 148.506 17.9583 149.272 16.825C150.056 15.6917 151.114 14.8167 152.447 14.2C153.797 13.5667 155.306 13.25 156.972 13.25C158.722 13.25 160.214 13.6167 161.447 14.35C162.681 15.0667 163.622 16.0917 164.272 17.425C164.939 18.7583 165.272 20.325 165.272 22.125H152.797V19.3H161.972L160.297 20.25C160.214 19.5333 160.031 18.9417 159.747 18.475C159.481 17.9917 159.114 17.625 158.647 17.375C158.197 17.125 157.656 17 157.022 17C156.322 17 155.722 17.15 155.222 17.45C154.739 17.75 154.364 18.1667 154.097 18.7C153.847 19.2333 153.722 19.8417 153.722 20.525C153.722 21.375 153.906 22.0917 154.272 22.675C154.656 23.2583 155.231 23.7083 155.997 24.025C156.764 24.325 157.714 24.475 158.847 24.475C159.931 24.475 160.989 24.3333 162.022 24.05C163.072 23.7667 164.031 23.35 164.897 22.8V26.15C163.881 26.8833 162.706 27.45 161.372 27.85C160.039 28.2333 158.689 28.425 157.322 28.425Z" fill="#2342DE"/>
<path d="M195.582 9.25V28H190.032V11.4L191.182 11.525L184.407 28H178.607L171.807 11.575L172.957 11.425V28H167.432V9.25H176.407L182.582 24.925H180.457L186.582 9.25H195.582ZM211.034 28L210.359 22.9L211.059 20.85L210.359 18.825L211.034 13.675H216.984L216.034 20.825L216.984 28H211.034ZM212.309 20.85C212.109 22.3667 211.667 23.7 210.984 24.85C210.317 25.9833 209.451 26.8667 208.384 27.5C207.334 28.1167 206.126 28.425 204.759 28.425C203.376 28.425 202.151 28.1083 201.084 27.475C200.017 26.8417 199.184 25.9583 198.584 24.825C198.001 23.675 197.709 22.35 197.709 20.85C197.709 19.3167 198.001 17.9833 198.584 16.85C199.184 15.7 200.017 14.8167 201.084 14.2C202.151 13.5667 203.376 13.25 204.759 13.25C206.126 13.25 207.334 13.5583 208.384 14.175C209.451 14.7917 210.326 15.675 211.009 16.825C211.692 17.9583 212.126 19.3 212.309 20.85ZM203.484 20.85C203.484 21.4833 203.609 22.0417 203.859 22.525C204.126 23.0083 204.492 23.3917 204.959 23.675C205.426 23.9583 205.959 24.1 206.559 24.1C207.176 24.1 207.767 23.9583 208.334 23.675C208.901 23.3917 209.401 23.0083 209.834 22.525C210.267 22.0417 210.584 21.4833 210.784 20.85C210.584 20.2167 210.267 19.6583 209.834 19.175C209.401 18.675 208.901 18.2833 208.334 18C207.767 17.7167 207.176 17.575 206.559 17.575C205.959 17.575 205.426 17.7167 204.959 18C204.492 18.2833 204.126 18.675 203.859 19.175C203.609 19.6583 203.484 20.2167 203.484 20.85ZM236.357 23.225C236.357 24.375 235.999 25.3417 235.282 26.125C234.582 26.8917 233.582 27.4667 232.282 27.85C230.999 28.2333 229.474 28.425 227.707 28.425C225.891 28.425 224.291 28.2083 222.907 27.775C221.541 27.3417 220.466 26.725 219.682 25.925C218.916 25.125 218.507 24.2 218.457 23.15H224.257C224.374 23.5 224.591 23.8 224.907 24.05C225.224 24.3 225.632 24.4917 226.132 24.625C226.649 24.7583 227.274 24.825 228.007 24.825C228.907 24.825 229.591 24.7333 230.057 24.55C230.541 24.35 230.782 24.0667 230.782 23.7C230.782 23.3833 230.591 23.1583 230.207 23.025C229.841 22.875 229.216 22.7667 228.332 22.7L225.907 22.525C224.157 22.4083 222.766 22.1667 221.732 21.8C220.699 21.4333 219.957 20.95 219.507 20.35C219.057 19.7333 218.832 19.0083 218.832 18.175C218.832 17.075 219.182 16.1583 219.882 15.425C220.582 14.6917 221.557 14.15 222.807 13.8C224.057 13.4333 225.524 13.25 227.207 13.25C228.857 13.25 230.324 13.4583 231.607 13.875C232.891 14.2917 233.916 14.8833 234.682 15.65C235.466 16.4 235.916 17.275 236.032 18.275H230.232C230.149 17.9583 229.974 17.6833 229.707 17.45C229.441 17.2 229.082 17.0083 228.632 16.875C228.182 16.725 227.616 16.65 226.932 16.65C226.099 16.65 225.474 16.75 225.057 16.95C224.641 17.15 224.432 17.425 224.432 17.775C224.432 18.0583 224.557 18.275 224.807 18.425C225.074 18.5583 225.566 18.65 226.282 18.7L229.507 18.925C231.241 19.025 232.599 19.2583 233.582 19.625C234.582 19.975 235.291 20.45 235.707 21.05C236.141 21.65 236.357 22.375 236.357 23.225ZM236.953 17.875V15.4L239.803 14.1L242.303 9.8H245.553V13.675H251.353V17.875H245.553V21.45C245.553 22.4167 245.736 23.1 246.103 23.5C246.486 23.9 247.228 24.1 248.328 24.1C249.011 24.1 249.619 24.05 250.153 23.95C250.686 23.8333 251.169 23.6917 251.603 23.525V27.75C251.069 27.9167 250.394 28.0667 249.578 28.2C248.761 28.35 247.903 28.425 247.003 28.425C245.369 28.425 244.019 28.175 242.953 27.675C241.903 27.175 241.111 26.4583 240.578 25.525C240.061 24.5917 239.803 23.4917 239.803 22.225V17.875H236.953ZM261.717 28.425C259.95 28.425 258.375 28.1083 256.992 27.475C255.608 26.8417 254.517 25.95 253.717 24.8C252.917 23.65 252.517 22.3083 252.517 20.775C252.517 19.275 252.9 17.9583 253.667 16.825C254.45 15.6917 255.508 14.8167 256.842 14.2C258.192 13.5667 259.7 13.25 261.367 13.25C263.117 13.25 264.608 13.6167 265.842 14.35C267.075 15.0667 268.017 16.0917 268.667 17.425C269.333 18.7583 269.667 20.325 269.667 22.125H257.192V19.3H266.367L264.692 20.25C264.608 19.5333 264.425 18.9417 264.142 18.475C263.875 17.9917 263.508 17.625 263.042 17.375C262.592 17.125 262.05 17 261.417 17C260.717 17 260.117 17.15 259.617 17.45C259.133 17.75 258.758 18.1667 258.492 18.7C258.242 19.2333 258.117 19.8417 258.117 20.525C258.117 21.375 258.3 22.0917 258.667 22.675C259.05 23.2583 259.625 23.7083 260.392 24.025C261.158 24.325 262.108 24.475 263.242 24.475C264.325 24.475 265.383 24.3333 266.417 24.05C267.467 23.7667 268.425 23.35 269.292 22.8V26.15C268.275 26.8833 267.1 27.45 265.767 27.85C264.433 28.2333 263.083 28.425 261.717 28.425ZM270.924 13.675H276.774L277.624 18.75V28H271.899V18.575L270.924 13.675ZM284.149 13.4V18.275C283.615 18.175 283.124 18.1083 282.674 18.075C282.24 18.025 281.84 18 281.474 18C280.79 18 280.157 18.1333 279.574 18.4C278.99 18.65 278.515 19.0917 278.149 19.725C277.799 20.3417 277.624 21.2 277.624 22.3L276.574 21C276.724 19.9667 276.924 18.9917 277.174 18.075C277.44 17.1417 277.799 16.3167 278.249 15.6C278.699 14.8667 279.257 14.2917 279.924 13.875C280.607 13.4583 281.44 13.25 282.424 13.25C282.69 13.25 282.965 13.2667 283.249 13.3C283.532 13.3167 283.832 13.35 284.149 13.4ZM290.957 32.55C289.824 32.55 288.824 32.4083 287.957 32.125C287.107 31.8583 286.266 31.425 285.432 30.825V26.925C286.266 27.4583 287.041 27.8417 287.757 28.075C288.474 28.3083 289.257 28.425 290.107 28.425C290.807 28.425 291.416 28.275 291.932 27.975C292.466 27.675 292.907 27.1167 293.257 26.3L298.432 13.675H304.507L297.807 28.05C297.291 29.1667 296.657 30.0583 295.907 30.725C295.174 31.3917 294.382 31.8583 293.532 32.125C292.682 32.4083 291.824 32.55 290.957 32.55ZM290.632 26.375L284.732 13.675H291.032L296.132 26.375H290.632Z" fill="white"/>
</svg>
